<svg xmlns="http://www.w3.org/2000/svg" width="35.546" height="35.499" viewBox="0 0 35.546 35.499">
  <g id="Group_18164" data-name="Group 18164" transform="translate(-773.977 -354.475)">
    <path id="Path_36507" data-name="Path 36507" d="M792.591,388.821c-.194-.573-.194-.573-.739-.573-.334,0-.669-.007-1,0-.168,0-.25-.018-.249-.226q.015-2.364,0-4.728c0-.184.067-.215.228-.21.346.01.695-.022,1.038.01.359.034.471-.06.468-.447-.021-2.411-.007-4.823-.016-7.235,0-.262.042-.358.338-.357q4.244.02,8.488,0c.317,0,.356.1.354.378-.011,2.436-.007,4.871-.006,7.307,0,.332.161.446.477.346.178-.056.091-.2.091-.3.006-1.325.011-2.651,0-3.976,0-.242.045-.32.305-.317,1.468.014,2.937.011,4.405,0a.338.338,0,0,1,.381.262c.562,1.525,1.136,3.046,1.709,4.567a1.343,1.343,0,0,1,.085.488c0,1.373-.008,2.746,0,4.119,0,.238-.038.358-.3.316-.117-.018-.242.016-.357-.006-.442-.084-.7.077-.743.576.563,0,1.14.008,1.716,0,.2,0,.258.046.26.253.011.9.018.9-.864.9q-17.136,0-34.272.007c-.315,0-.42-.063-.407-.4.028-.755.009-.749.758-.759.317,0,.74.14.921-.064.156-.176.048-.59.048-.9q0-12.554-.008-25.108a.9.9,0,0,1,.587-.936q7.5-3.589,14.986-7.213a.992.992,0,0,1,.973.008q7.194,3.613,14.4,7.2a.915.915,0,0,1,.587.94q-.022,7.414,0,14.828c0,.3-.072.373-.368.365-.785-.022-.786-.007-.786-.8q0-6.984.006-13.969a.48.48,0,0,0-.3-.517q-6.889-3.427-13.764-6.883a.549.549,0,0,0-.555.012q-7.169,3.457-14.345,6.9a.4.4,0,0,0-.267.429q.01,12.7,0,25.394c0,.239.041.317.3.324.3.008.279-.143.278-.346,0-2.447,0-4.895-.008-7.342,0-.266.046-.37.341-.355.536.028,1.074-.007,1.611.014.269.01.355-.051.354-.342-.012-3.558-.008-7.116-.008-10.673,0-.645.006-1.29,0-1.934,0-.179.036-.243.232-.242q11.8.008,23.6,0c.179,0,.242.037.242.232q-.01,4.925,0,9.85c0,.181-.04.238-.233.243-.917.02-.917.027-.917-.881,0-1.146-.006-2.292.005-3.438,0-.218-.047-.277-.273-.277q-10.619.01-21.238,0c-.219,0-.277.049-.276.273q.014,3.456,0,6.913c0,.221.052.276.274.275,1.719-.01,3.438,0,5.157-.012.253,0,.312.062.311.312-.01,2.459,0,4.919-.013,7.378,0,.283.073.348.349.346,1.779-.013,3.557-.007,5.336-.007Zm15.205-1.752c0-1.022-.013-2.044.008-3.065.006-.3-.1-.35-.367-.346-.99.014-1.981.008-2.971,0-.468,0-.677-.211-.68-.676,0-.68,0-1.36,0-2.04,0-.519.2-.718.708-.72.643,0,1.286,0,1.932,0-.114-.573-.114-.573-.641-.573-.764,0-1.528.011-2.291-.006-.244-.006-.289.074-.287.3.01,1.336,0,2.673.011,4.009,0,.24-.069.291-.3.289-1.265-.011-2.529-.005-3.794-.005-2.362,0-4.725,0-7.087-.005-.23,0-.3.053-.295.291.016.775,0,1.551.009,2.327,0,.084-.055.192.066.25a.557.557,0,0,0,.658-.254,2.3,2.3,0,0,1,2.139-1.462,2.262,2.262,0,0,1,2.13,1.466.335.335,0,0,0,.381.257q2.935-.011,5.87,0a.336.336,0,0,0,.376-.264,2.27,2.27,0,0,1,2.769-1.369A2.539,2.539,0,0,1,807.8,387.069Zm-7.45-7.417c0-1.062-.005-2.125,0-3.187,0-.2-.053-.264-.256-.256-.405.016-.812.016-1.217,0-.2-.008-.258.055-.255.257.011.788,0,1.576.009,2.363,0,.2-.056.257-.257.255q-1.468-.015-2.936,0c-.2,0-.258-.055-.255-.257.011-.788,0-1.576.01-2.363,0-.2-.056-.263-.257-.255-.393.016-.788.02-1.181,0-.238-.013-.292.064-.291.294q.014,3.151,0,6.3c0,.236.062.292.294.291q3.151-.014,6.3,0c.234,0,.3-.06.292-.293C800.339,381.752,800.346,380.7,800.346,379.651Zm-14.9,5.739c0-1.062,0-2.125,0-3.187,0-.191-.031-.274-.247-.264a11.9,11.9,0,0,1-1.217,0c-.242-.014-.266.085-.263.286.01.776,0,1.552.008,2.327,0,.192-.035.266-.248.263-.979-.012-1.958-.015-2.936,0-.241,0-.265-.085-.263-.287.01-.764,0-1.528.009-2.292,0-.221-.037-.315-.285-.3a10.778,10.778,0,0,1-1.145,0c-.223-.01-.3.04-.3.286q.016,3.151,0,6.3c0,.221.038.3.285.3q3.151-.017,6.3,0c.267,0,.3-.088.3-.323C785.44,387.467,785.447,386.428,785.447,385.39Zm6.3-15.481h10.135c.752,0,.734,0,.761-.753.012-.329-.083-.4-.4-.4q-10.3.015-20.591.008c-.789,0-.773,0-.8.788-.009.3.073.366.368.365C784.732,369.9,788.242,369.909,791.752,369.909Zm0,2.292h10.134c.753,0,.735,0,.761-.752.012-.328-.082-.4-.4-.4q-10.3.015-20.591.008c-.79,0-.774,0-.8.788-.009.3.072.367.368.365C784.732,372.2,788.242,372.2,791.751,372.2Zm11.713,16.614c-.041-.488-.3-.587-.738-.58-1.789.029-3.579.012-5.369.012-.561,0-.561,0-.7.568Zm-8.842,0a1.146,1.146,0,1,0-1.152-1.157A1.15,1.15,0,0,0,794.622,388.819Zm9.737-1.2a1.146,1.146,0,1,0,1.216-1.091A1.152,1.152,0,0,0,804.359,387.621Zm2.923-5.1c-.283-1.146-.283-1.146-1.39-1.146h-.071c-.935,0-.935,0-.89.931a.2.2,0,0,1,0,.036c-.019.138.039.183.179.182C805.831,382.514,806.554,382.517,807.282,382.517Zm-9.8-5.425c0-.909,0-.909-.912-.879a.2.2,0,0,1-.036,0c-.155-.024-.206.038-.2.2.011.405.02.812,0,1.216-.014.251.056.317.31.313C797.481,377.927,797.481,377.938,797.481,377.091Zm-14.9,5.731c0-.908,0-.908-.912-.878a.2.2,0,0,1-.036,0c-.156-.024-.206.038-.2.2.011.405.02.812,0,1.216-.014.251.057.317.31.313C782.582,383.658,782.582,383.669,782.582,382.822Z" transform="translate(0 0)" fill="#1877f2"/>
    <path id="Path_36508" data-name="Path 36508" d="M867.71,436.57c-3.127,0-6.255,0-9.383.008-.3,0-.372-.066-.368-.365.019-1.313.014-2.626,0-3.94,0-.233.058-.293.292-.293q9.454.01,18.908,0c.232,0,.3.056.294.291-.012,1.325-.014,2.65,0,3.975,0,.267-.062.331-.33.33C873.989,436.566,870.849,436.57,867.71,436.57Zm.036-3.438c-2.77,0-5.539,0-8.308-.007-.266,0-.342.058-.331.329.024.572.016,1.146,0,1.719,0,.2.054.256.256.256q8.344-.008,16.688,0c.2,0,.262-.051.257-.255-.014-.573-.021-1.147,0-1.719.011-.269-.062-.331-.33-.33C873.236,433.136,870.491,433.131,867.745,433.131Z" transform="translate(-75.958 -70.1)" fill="#1877f2"/>
    <path id="Path_36521" data-name="Path 36521" d="M1020.135,636.429c-.283.078-.248-.111-.269-.3-.031-.275.118-.256.313-.275.276-.027.258.119.275.314C1020.478,636.439,1020.349,636.47,1020.135,636.429Z" transform="translate(-222.392 -254.492)" fill="#1877f2"/>
    <path id="Path_36522" data-name="Path 36522" d="M1032.424,636.17c.083.307-.117.257-.3.28-.284.036-.249-.129-.27-.316-.033-.285.13-.251.317-.27C1032.447,635.837,1032.474,635.971,1032.424,636.17Z" transform="translate(-233.235 -254.5)" fill="#1877f2"/>
    <path id="Path_36523" data-name="Path 36523" d="M864.258,695.847c.289-.078.239.122.262.3.036.284-.129.249-.316.27-.285.033-.25-.13-.27-.317C863.9,695.825,864.051,695.813,864.258,695.847Z" transform="translate(-81.359 -308.74)" fill="#1877f2"/>
    <path id="Path_36524" data-name="Path 36524" d="M876.252,695.849c.283-.077.248.111.269.3.031.276-.119.256-.313.275-.276.027-.258-.119-.275-.314C875.91,695.84,876.038,695.808,876.252,695.849Z" transform="translate(-92.213 -308.741)" fill="#1877f2"/>
    <path id="Path_36525" data-name="Path 36525" d="M985.144,696.519a.572.572,0,1,1-.576-.559A.578.578,0,0,1,985.144,696.519Z" transform="translate(-189.957 -308.857)" fill="#1877f2"/>
    <path id="Path_36526" data-name="Path 36526" d="M1098.541,695.958a.572.572,0,1,1-.586.547A.576.576,0,0,1,1098.541,695.958Z" transform="translate(-293.022 -308.855)" fill="#1877f2"/>
  </g>
</svg>
